<?xml version="1.0" encoding="UTF-8" standalone="no"?><!DOCTYPE svg PUBLIC "-//W3C//DTD SVG 1.1//EN" "http://www.w3.org/Graphics/SVG/1.1/DTD/svg11.dtd"><svg width="100%" height="100%" viewBox="0 0 68 68" version="1.1" xmlns="http://www.w3.org/2000/svg" xmlns:xlink="http://www.w3.org/1999/xlink" xml:space="preserve" xmlns:serif="http://www.serif.com/" style="fill-rule:evenodd;clip-rule:evenodd;stroke-linecap:round;stroke-miterlimit:1;"><rect id="ico-fd" x="0" y="0" width="68" height="68" style="fill:none;"/><g><circle cx="34" cy="34" r="31" style="fill:none;stroke:#fff;stroke-width:2px;stroke-dasharray:0.8,8,0,0,0,0;"/><g><path d="M58.681,30.542c1.908,13.622 -7.602,26.23 -21.223,28.139c-13.622,1.908 -26.23,-7.602 -28.139,-21.223c-1.908,-13.622 7.602,-26.23 21.223,-28.139c13.622,-1.908 26.23,7.602 28.139,21.223Zm-1.981,0.278c-1.755,-12.529 -13.352,-21.275 -25.88,-19.52c-12.529,1.755 -21.275,13.352 -19.52,25.88c1.755,12.529 13.352,21.275 25.88,19.52c12.529,-1.755 21.275,-13.352 19.52,-25.88Z" style="fill:#5c5c5c;"/><path d="M56.273,30.88l-4.816,0.674" style="fill:none;stroke:#5c5c5c;stroke-width:2px;"/></g></g></svg>