<?xml version="1.0" encoding="UTF-8" standalone="no"?><!DOCTYPE svg PUBLIC "-//W3C//DTD SVG 1.1//EN" "http://www.w3.org/Graphics/SVG/1.1/DTD/svg11.dtd"><svg width="100%" height="100%" viewBox="0 0 68 68" version="1.1" xmlns="http://www.w3.org/2000/svg" xmlns:xlink="http://www.w3.org/1999/xlink" xml:space="preserve" xmlns:serif="http://www.serif.com/" style="fill-rule:evenodd;clip-rule:evenodd;stroke-linecap:round;stroke-miterlimit:1;"><rect id="ico-cd" x="0" y="0" width="68" height="68" style="fill:none;"/><path d="M48.541,13.761c11.171,8.025 13.724,23.61 5.698,34.78c-8.025,11.171 -23.61,13.724 -34.78,5.698c-11.171,-8.025 -13.724,-23.61 -5.698,-34.78c8.025,-11.171 23.61,-13.724 34.78,-5.698Zm-1.167,1.624c-10.274,-7.382 -24.608,-5.033 -31.989,5.241c-7.382,10.274 -5.033,24.608 5.241,31.989c10.274,7.382 24.608,5.033 31.989,-5.241c7.382,-10.273 5.033,-24.608 -5.241,-31.989Z" style="fill:#5c5c5c;"/><path d="M47.123,15.735l-2.838,3.949" style="fill:none;stroke:#5c5c5c;stroke-width:2px;"/><circle cx="34" cy="34" r="31" style="fill:none;stroke:#fff;stroke-width:2px;stroke-dasharray:0.8,18,0,0,0,0;"/></svg>