<?xml version="1.0" encoding="UTF-8" standalone="no"?>
<!DOCTYPE svg PUBLIC "-//W3C//DTD SVG 1.1//EN" "http://www.w3.org/Graphics/SVG/1.1/DTD/svg11.dtd">
<svg width="100%" height="100%" viewBox="0 0 68 68" version="1.1" xmlns="http://www.w3.org/2000/svg" xmlns:xlink="http://www.w3.org/1999/xlink" xml:space="preserve" xmlns:serif="http://www.serif.com/" style="fill-rule:evenodd;clip-rule:evenodd;stroke-linecap:round;stroke-linejoin:round;stroke-miterlimit:10;">
    <g transform="matrix(1,0,0,1,-305.542,-1)">
        <g id="ico-key" transform="matrix(1.0546,0,0,1.0625,305.542,1)">
            <rect x="0" y="0" width="64.48" height="64" style="fill:none;"/>
            <g transform="matrix(0.94823,0,0,0.941176,-933.302,-193.909)">
                <g transform="matrix(0.0275877,0,0,0.0275877,878.167,103.3)">
                    <path d="M5874,4443L5875,4443" style="fill:none;fill-rule:nonzero;stroke:white;stroke-width:72.5px;"/>
                </g>
                <g transform="matrix(0.0275877,0,0,0.0275877,878.167,155.165)">
                    <path d="M5045,3983L5035,3944L5024,3904L5014,3864L5003,3823L4993,3786L4982,3748L4970,3703L4966,3690L4954,3647L4942,3603L4930,3560L4904,3472L4897,3449L4891,3428L4886,3409L4880,3389L4874,3370L4868,3350L4862,3329L4850,3292L4838,3253L4826,3213L4821,3196L4816,3181L4812,3166L4807,3152L4802,3137L4798,3122L4793,3107L4780,3066L4767,3023" style="fill:none;fill-rule:nonzero;stroke:white;stroke-width:72.5px;"/>
                </g>
                <g transform="matrix(0.0238905,-0.0137959,-0.0137959,-0.0238905,945.394,414.402)">
                    <path d="M5023.1,3351L6334.9,3351" style="fill:none;fill-rule:nonzero;stroke:white;stroke-width:72.5px;"/>
                </g>
                <g transform="matrix(0.0275877,0,0,0.0275877,878.167,86.0302)">
                    <path d="M4860,4756L4860,4756" style="fill:none;fill-rule:nonzero;stroke:white;stroke-width:72.5px;"/>
                </g>
                <g transform="matrix(0.0275877,0,0,0.0275877,878.167,114.308)">
                    <path d="M5737,4232L5746,4238L5752,4244L5754,4247L5758,4255" style="fill:none;fill-rule:nonzero;stroke:white;stroke-width:72.5px;"/>
                </g>
                <g transform="matrix(0.0238905,0.0137959,0.0137959,-0.0238905,848.49,274.291)">
                    <path d="M3821.1,3351L5132.9,3351" style="fill:none;fill-rule:nonzero;stroke:white;stroke-width:72.5px;"/>
                </g>
                <g transform="matrix(0.0275877,0,0,0.0275877,878.167,108.625)">
                    <path d="M4419,4204L4408,4210L4398,4216L4387,4222L4378,4228L4369,4233L4360,4239L4353,4243L4347,4248L4340,4252L4336,4255L4333,4258L4332,4258L4330,4260L4329,4260L4327,4262L4315,4272L4306,4281L4302,4286L4299,4290L4297,4292L4297,4293L4295,4295L4295,4296L4292,4300L4290,4304L4287,4316L4286,4318L4286,4332L4287,4334L4287,4337L4289,4342L4291,4348L4297,4360L4305,4370L4306,4372L4309,4375L4310,4377L4312,4379L4316,4384L4337,4405L4343,4410L4348,4415L4349,4415L4350,4416L4350,4417L4351,4417L4352,4418L4353,4418L4359,4424L4367,4430L4374,4436L4383,4442L4391,4449L4400,4456L4436,4480L4450,4489" style="fill:none;fill-rule:nonzero;stroke:white;stroke-width:72.5px;"/>
                </g>
                <g transform="matrix(0.0275877,0,0,0.0275877,878.167,103.3)">
                    <path d="M5874,4443L5874,4443" style="fill:none;fill-rule:nonzero;stroke:white;stroke-width:72.5px;"/>
                </g>
                <g transform="matrix(0.0275877,0,0,0.0275877,878.167,103.3)">
                    <path d="M5874,4443L5874,4443" style="fill:none;fill-rule:nonzero;stroke:white;stroke-width:72.5px;"/>
                </g>
                <g transform="matrix(0.0275877,0,0,0.0275877,878.167,104.79)">
                    <path d="M4288,4416L4288,4416" style="fill:none;fill-rule:nonzero;stroke:white;stroke-width:72.5px;"/>
                </g>
                <g transform="matrix(0.0275877,0,0,0.0275877,878.167,84.237)">
                    <path d="M5370,4842L5361,4837L5337,4822L5330,4818L5324,4815L5303,4803L5298,4800L5286,4794L5281,4791L5275,4787L5269,4784L5264,4782L5260,4780L5255,4778L5251,4775L5246,4773L5242,4771L5232,4767L5228,4765L5223,4763L5219,4761L5214,4759L5211,4757L5203,4755L5200,4753L5196,4752L5192,4750L5184,4748L5181,4747L5177,4745L5173,4744L5170,4744L5166,4743L5163,4742L5159,4741L5153,4739L5149,4739L5146,4738L5143,4738L5140,4737L5136,4737L5133,4736L5127,4736L5125,4735L5091,4735L5089,4736L5082,4736L5079,4737L5076,4737L5072,4738L5069,4738L5066,4739L5063,4739L5059,4740L5056,4741L5052,4742L5049,4742L5046,4743L5042,4744L5039,4745L5035,4746L5029,4748L5025,4750L5017,4752L5013,4754L5009,4755L5005,4757L5001,4758L4998,4760L4994,4762L4990,4763L4978,4769L4974,4770L4971,4772L4966,4775L4961,4777L4956,4780L4951,4782L4946,4785L4941,4787L4936,4790L4931,4792L4927,4795L4922,4798L4910,4804L4904,4808L4899,4811L4893,4815L4881,4821L4875,4825" style="fill:none;fill-rule:nonzero;stroke:white;stroke-width:72.5px;"/>
                </g>
                <g transform="matrix(0.0275877,0,0,0.0275877,878.167,104.79)">
                    <path d="M4288,4416L4288,4416" style="fill:none;fill-rule:nonzero;stroke:white;stroke-width:72.5px;"/>
                </g>
                <g transform="matrix(0.0275877,0,0,0.0275877,878.167,103.3)">
                    <path d="M5874,4443L5874,4443" style="fill:none;fill-rule:nonzero;stroke:white;stroke-width:72.5px;"/>
                </g>
                <g transform="matrix(0.023176,-0.0149651,-0.0149651,-0.023176,965.567,414.797)">
                    <path d="M5550.31,4170.66C5625.65,4167.93 5701.06,4167.93 5776.4,4170.66" style="fill:none;fill-rule:nonzero;stroke:white;stroke-width:72.5px;"/>
                </g>
                <g transform="matrix(0.0275877,0,0,0.0275877,878.167,181.897)">
                    <path d="M5111,3014L5110,3014L5108,3015L5107,3016L5105,3017L5104,3017L5103,3018L5101,3019L5100,3019L5098,3020L5097,3020L5095,3021L5092,3021L5091,3022L5088,3022L5087,3023L5070,3023L5068,3022L5066,3022L5064,3021L5062,3021L5060,3020L5059,3020L5058,3019L5056,3019L5055,3018L5054,3018L5052,3017L5051,3017L5050,3016L5046,3014L5045,3014" style="fill:none;fill-rule:nonzero;stroke:white;stroke-width:72.5px;"/>
                </g>
                <g transform="matrix(0.0243853,-0.0129012,-0.0129012,-0.0243853,947.675,405.615)">
                    <path d="M5281.81,4038.87C5383.17,4033.72 5484.73,4033.72 5586.09,4038.87" style="fill:none;fill-rule:nonzero;stroke:white;stroke-width:72.5px;"/>
                </g>
                <g transform="matrix(0.0275877,0,0,0.0275877,878.167,144.875)">
                    <path d="M6264,3679L6264,3683L6263,3684L6263,3686L6261,3688L6261,3689L6255,3695L6254,3695L6252,3697L6250,3698L6249,3699L6247,3700" style="fill:none;fill-rule:nonzero;stroke:white;stroke-width:72.5px;"/>
                </g>
                <g transform="matrix(0.0242172,0.0132139,0.0132139,-0.0242172,840.519,273.198)">
                    <path d="M4547.61,4038.86C4625.38,4036.05 4703.23,4036.05 4781.01,4038.86" style="fill:none;fill-rule:nonzero;stroke:white;stroke-width:72.5px;"/>
                </g>
                <g transform="matrix(0.0275877,0,0,0.0275877,878.167,105.811)">
                    <path d="M5737,4540L5748,4532L5759,4525L5769,4517L5796,4496L5810,4484L5816,4479L5820,4475L5824,4472L5824,4471L5841,4454L5846,4448L5850,4442L5854,4437L5857,4432L5858,4431L5859,4429L5860,4428L5860,4427L5862,4425L5864,4420L5866,4416L5867,4411L5869,4407L5870,4403L5870,4387L5869,4384L5869,4381L5865,4371L5859,4361L5851,4351L5835,4335L5830,4331L5824,4326L5819,4322L5813,4318L5808,4315L5806,4313L5805,4313L5804,4312L5797,4307L5789,4303L5782,4298L5774,4293L5765,4287L5756,4282L5744,4276L5720,4262L5707,4255" style="fill:none;fill-rule:nonzero;stroke:white;stroke-width:72.5px;"/>
                </g>
                <g transform="matrix(0.0233871,0.014633,0.014633,-0.0233871,836.512,265.296)">
                    <path d="M4415.59,4136.9C4468.35,4135.66 4521.14,4135.66 4573.9,4136.9" style="fill:none;fill-rule:nonzero;stroke:white;stroke-width:72.5px;"/>
                </g>
                <g transform="matrix(0.0234234,0.0145748,0.0145748,-0.0234234,836.394,265.225)">
                    <path d="M4436.36,4158.09C4493.27,4156.65 4550.2,4156.65 4607.11,4158.09" style="fill:none;fill-rule:nonzero;stroke:white;stroke-width:72.5px;"/>
                </g>
                <g transform="matrix(0.0275877,0,0,0.0275877,878.167,83.906)">
                    <path d="M5386,4850L5384,4849L5383,4848L5379,4846L5378,4845L5376,4845L5375,4844L5373,4843L5372,4842L5368,4840L5367,4839L5365,4838L5364,4837L5362,4836L5359,4834L5357,4833L5354,4831L5351,4830L5349,4828L5346,4827L5341,4823L5329,4817L5324,4814L5318,4810L5315,4809L5311,4807L5305,4803L5302,4802L5298,4799L5294,4797L5289,4795L5285,4792L5275,4788L5271,4785L5266,4783L5254,4777L5250,4776L5246,4774L5243,4772L5239,4770L5235,4769L5227,4765L5223,4764L5219,4762L5214,4760L5210,4759L5206,4757L5202,4756L5196,4754L5192,4753L5180,4749L5178,4748L5176,4748L5174,4747L5172,4747L5170,4746L5168,4746L5166,4745L5162,4745L5160,4744L5158,4744L5157,4743L5152,4743L5150,4742L5146,4742L5144,4741L5138,4741L5136,4740L5130,4740L5127,4739L5087,4739L5085,4740L5078,4740L5076,4741L5070,4741L5069,4742L5063,4742L5063,4743L5058,4743L5057,4744L5053,4744L5051,4745L5050,4745L5048,4746L5045,4746L5044,4747L5042,4747L5040,4748L5037,4748L5033,4750L5030,4750L5027,4751L5025,4752L5022,4753L5020,4753L5018,4754L5015,4755L5011,4757L5007,4758L5002,4760L4998,4761L4990,4765L4986,4766L4983,4768L4979,4769L4976,4770L4973,4772L4972,4773L4970,4773L4968,4774L4967,4775L4965,4776L4963,4776L4961,4778L4960,4778L4958,4779L4957,4779L4956,4780L4950,4783L4949,4783L4947,4784L4944,4786L4941,4787L4938,4789L4935,4790L4932,4792L4930,4793L4925,4796L4917,4800L4912,4803L4907,4805L4902,4808L4898,4811L4893,4814L4888,4816L4886,4818L4884,4819L4881,4820L4881,4821L4880,4821L4879,4822L4878,4822L4878,4823L4876,4823L4874,4825L4873,4825L4872,4826L4871,4826L4869,4828L4868,4828L4866,4830L4865,4830L4863,4831L4861,4833L4860,4833" style="fill:none;fill-rule:nonzero;stroke:white;stroke-width:72.5px;"/>
                </g>
                <g transform="matrix(0.0242396,0.0131727,0.0131727,-0.0242396,840.381,273.055)">
                    <path d="M4581.65,4060.8C4654.53,4058.34 4727.48,4058.34 4800.36,4060.8" style="fill:none;fill-rule:nonzero;stroke:white;stroke-width:72.5px;"/>
                </g>
                <g transform="matrix(0.0238916,-0.0137939,-0.0137939,-0.0238916,959.081,395.494)">
                    <path d="M4385.52,4620.29C4561.09,4616.05 4736.74,4616.05 4912.32,4620.29" style="fill:none;fill-rule:nonzero;stroke:white;stroke-width:72.5px;"/>
                </g>
                <g transform="matrix(0.0238915,0.013794,0.013794,-0.0238915,834.669,254.912)">
                    <path d="M5343.42,4637.33C5473.16,4634.34 5602.96,4634.34 5732.7,4637.33" style="fill:none;fill-rule:nonzero;stroke:white;stroke-width:72.5px;"/>
                </g>
                <g transform="matrix(0.0244011,-0.0128712,-0.0128712,-0.0244011,947.654,405.133)">
                    <path d="M5263.79,4059.41C5360.76,4054.75 5457.91,4054.75 5554.89,4059.41" style="fill:none;fill-rule:nonzero;stroke:white;stroke-width:72.5px;"/>
                </g>
                <g transform="matrix(0.0232157,-0.0149034,-0.0149034,-0.0232157,965.28,414.139)">
                    <path d="M5519.5,4191.38C5598.19,4188.43 5676.96,4188.43 5755.65,4191.38" style="fill:none;fill-rule:nonzero;stroke:white;stroke-width:72.5px;"/>
                </g>
                <g transform="matrix(0.0238916,-0.0137939,-0.0137939,-0.0238916,959.057,395.239)">
                    <path d="M4366.93,4623.24C4543.08,4618.99 4719.31,4618.99 4895.46,4623.24" style="fill:none;fill-rule:nonzero;stroke:white;stroke-width:72.5px;"/>
                </g>
                <g transform="matrix(0.0238915,0.0137941,0.0137941,-0.0238915,834.684,254.661)">
                    <path d="M5360.16,4640.88C5490.23,4637.9 5620.35,4637.9 5750.42,4640.88" style="fill:none;fill-rule:nonzero;stroke:white;stroke-width:72.5px;"/>
                </g>
                <g transform="matrix(0.0275877,0,0,0.0275877,878.167,128.883)">
                    <path d="M5299.67,3991.32C5299.05,3989.35 5298.29,3987.39 5297.4,3985.49C5293.45,3977.02 5287.27,3970.25 5280.87,3967.36" style="fill:none;fill-rule:nonzero;stroke:white;stroke-width:72.5px;"/>
                </g>
                <g transform="matrix(0.0275877,0,0,0.0275877,878.167,127.964)">
                    <path d="M4786.66,3982.78C4780.23,3985.53 4773.94,3992.1 4769.8,4000.39C4768.36,4003.25 4767.23,4006.23 4766.44,4009.22" style="fill:none;fill-rule:nonzero;stroke:white;stroke-width:72.5px;"/>
                </g>
                <g transform="matrix(0.0275877,0,0,0.0275877,878.167,117.184)">
                    <path d="M4449.73,4178.72C4443.63,4181.19 4437.35,4186.78 4432.63,4193.95C4430.52,4197.17 4428.79,4200.6 4427.55,4204.03" style="fill:none;fill-rule:nonzero;stroke:white;stroke-width:72.5px;"/>
                </g>
                <g transform="matrix(0.0275877,0,0,0.0275877,878.167,100.652)">
                    <path d="M4418.89,4493.65C4412.64,4489.32 4406.19,4488.32 4401.38,4490.94C4401.37,4490.94 4401.37,4490.94 4401.37,4490.94" style="fill:none;fill-rule:nonzero;stroke:white;stroke-width:72.5px;"/>
                </g>
                <g transform="matrix(-0.0268627,-0.00628293,-0.00628293,0.0268627,1173.06,120.129)">
                    <path d="M4858.71,4755.84C4865.68,4752.65 4871.7,4752.65 4874.95,4755.84" style="fill:none;fill-rule:nonzero;stroke:white;stroke-width:72.5px;"/>
                </g>
                <g transform="matrix(-0.0269329,0.00597483,0.00597483,0.0269329,1143.05,58.0069)">
                    <path d="M5369.55,4738.99C5372.99,4735.7 5379.19,4735.7 5386.26,4738.99" style="fill:none;fill-rule:nonzero;stroke:white;stroke-width:72.5px;"/>
                </g>
                <g transform="matrix(0.0275877,0,0,0.0275877,878.167,130.86)">
                    <path d="M5299,3920L5293,3922L5288,3925L5282,3927L5276,3930L5270,3932L5264,3935L5258,3937L5252,3940L5237,3946L5232,3947L5222,3951L5216,3953L5211,3955L5206,3956L5201,3958L5193,3960L5189,3962L5173,3966L5168,3967L5160,3969L5157,3970L5153,3971L5150,3972L5146,3972L5142,3973L5139,3974L5135,3975L5131,3975L5123,3977L5120,3977L5116,3978L5112,3978L5108,3979L5105,3979L5101,3980L5097,3980L5094,3981L5083,3981L5080,3982L5068,3982L5064,3983L5033,3983L5030,3982L5015,3982L5011,3981L5002,3981L4999,3980L4996,3980L4992,3979L4985,3979L4981,3978L4978,3977L4974,3977L4971,3976L4967,3976L4963,3975L4960,3974L4956,3974L4950,3972L4945,3971L4913,3963L4908,3962L4904,3960L4899,3959L4894,3957L4890,3956L4880,3952L4876,3951L4871,3949L4859,3945L4853,3942L4841,3938L4836,3935L4829,3932L4822,3930L4815,3927L4808,3923L4780,3911L4773,3907L4767,3904" style="fill:none;fill-rule:nonzero;stroke:white;stroke-width:72.5px;"/>
                </g>
                <g transform="matrix(0.0275877,0,0,0.0275877,878.167,155.606)">
                    <path d="M5299,3023L5297,3038L5296,3054L5293,3070L5291,3085L5290,3098L5287,3116L5284,3136L5281,3157L5279,3175L5276,3193L5267,3250L5263,3268L5260,3285L5255,3315L5250,3344L5240,3398L5235,3420L5231,3441L5230,3449L5227,3459L5223,3481L5207,3559L5191,3635L5183,3667L5176,3699L5172,3719L5169,3729L5167,3739L5164,3750L5155,3788L5147,3825L5138,3862L5129,3898L5120,3932L5111,3967" style="fill:none;fill-rule:nonzero;stroke:white;stroke-width:72.5px;"/>
                </g>
                <g transform="matrix(0.0275877,0,0,0.0275877,878.167,130.198)">
                    <path d="M6247,4232L6237,4206L6226,4180L6213,4154L6199,4128L6183,4102L6166,4075L6148,4049L6140,4038L6133,4029L6127,4020L6120,4012L6113,4003L6105,3994L6091,3976L6066,3948L6040,3921L6033,3913L6027,3907L6021,3902L6016,3896L6004,3884L5998,3879L5986,3868L5974,3856L5961,3844L5943,3828L5924,3811L5903,3794L5882,3776L5875,3771L5839,3741L5822,3728L5806,3715L5803,3713L5801,3711L5800,3711L5796,3707L5792,3704L5786,3700L5781,3695L5767,3685L5758,3679" style="fill:none;fill-rule:nonzero;stroke:white;stroke-width:72.5px;"/>
                </g>
                <g transform="matrix(0.0275877,0,0,0.0275877,878.167,131.66)">
                    <path d="M4428,3679L4394,3697L4361,3715L4330,3733L4306,3747L4293,3756L4279,3764L4253,3782L4228,3799L4204,3816L4181,3833L4153,3855L4141,3865L4135,3871L4129,3876L4106,3896L4085,3916L4045,3958L4013,3996L4003,4010L3997,4017L3987,4031L3971,4055L3956,4079L3942,4104L3930,4129L3919,4154L3909,4179" style="fill:none;fill-rule:nonzero;stroke:white;stroke-width:72.5px;"/>
                </g>
                <g transform="matrix(0.0275877,0,0,0.0275877,878.167,129.508)">
                    <path d="M4787,3927L4819,3943L4833,3949L4839,3952L4853,3958L4858,3960L4864,3963L4876,3967L4881,3970L4887,3972L4892,3974L4896,3976L4901,3977L4905,3979L4910,3981L4914,3982L4919,3984L4924,3985L4928,3987L4933,3988L4937,3990L4942,3991L4945,3992L4957,3995L4960,3996L4980,4001L4983,4001L4986,4002L4990,4003L4993,4003L4997,4004L5000,4004L5004,4005L5007,4005L5010,4006L5013,4006L5016,4007L5023,4007L5026,4008L5045,4008L5048,4009L5054,4009L5057,4008L5074,4008L5077,4007L5087,4007L5090,4006L5093,4006L5097,4005L5100,4005L5104,4004L5107,4004L5111,4003L5114,4003L5117,4002L5121,4001L5124,4001L5132,3999L5135,3998L5159,3992L5162,3991L5170,3989L5174,3987L5186,3984L5196,3980L5200,3978L5205,3976L5210,3975L5225,3969L5229,3967L5234,3965L5240,3963L5246,3960L5252,3958L5258,3955L5263,3953L5275,3947L5281,3945" style="fill:none;fill-rule:nonzero;stroke:white;stroke-width:72.5px;"/>
                </g>
                <g transform="matrix(0.0275877,0,0,0.0275877,878.167,124.543)">
                    <path d="M4288,3700L4282,3706L4281,3706L4281,3707L4280,3707L4280,3708L4279,3709L4278,3709L4278,3710L4277,3710L4277,3711L4276,3711L4276,3712L4275,3712L4275,3713L4274,3713L4274,3714L4273,3714L4273,3715L4272,3715L4272,3716L4271,3716L4271,3717L4270,3717L4270,3718L4269,3718L4269,3719L4268,3719L4268,3720L4267,3720L4267,3721L4266,3721L4266,3722L4265,3722L4265,3723L4264,3723L4264,3724L4263,3724L4263,3725L4261,3727L4260,3727L4260,3728L4259,3728L4259,3729L4257,3731L4256,3731L4256,3732L4251,3737L4251,3738L4250,3738L4249,3739L4249,3740L4248,3740L4248,3741L4247,3741L4247,3742L4246,3742L4246,3743L4245,3743L4245,3744L4244,3744L4244,3745L4243,3745L4243,3746L4242,3746L4242,3747L4241,3747L4241,3748L4240,3748L4240,3749L4239,3749L4239,3750L4238,3750L4238,3751L4235,3754L4235,3755L4234,3755L4234,3756L4233,3756L4233,3757L4232,3757L4232,3758L4231,3758L4231,3759L4230,3759L4230,3760L4229,3760L4229,3761L4228,3761L4228,3762L4224,3766L4224,3767L4223,3767L4223,3768L4222,3768L4222,3769L4221,3769L4221,3770L4220,3770L4220,3771L4219,3771L4219,3772L4218,3772L4218,3773L4217,3773L4217,3774L4214,3777L4214,3778L4213,3778L4213,3779L4212,3779L4212,3780L4211,3780L4211,3781L4210,3781L4210,3782L4209,3782L4209,3783L4208,3783L4208,3784L4207,3785L4207,3786L4206,3786L4206,3787L4205,3787L4205,3788L4204,3788L4204,3789L4203,3789L4203,3790L4202,3790L4202,3791L4201,3791L4201,3792L4200,3792L4200,3794L4199,3794L4199,3795L4198,3795L4198,3796L4197,3796L4197,3797L4196,3797L4196,3798L4195,3798L4195,3799L4192,3802L4192,3803L4191,3803L4191,3804L4190,3804L4190,3805L4189,3805L4189,3806L4188,3806L4188,3807L4187,3808L4187,3809L4186,3809L4186,3810L4185,3810L4185,3811L4184,3811L4184,3812L4181,3815L4181,3816L4180,3816L4180,3817L4179,3817L4179,3818L4178,3818L4178,3819L4177,3819L4177,3820L4176,3821L4176,3822L4175,3822L4175,3823L4174,3823L4174,3824L4173,3824L4173,3825L4171,3827L4171,3828L4170,3828L4170,3829L4169,3829L4169,3830L4168,3830L4168,3831L4167,3832L4167,3833L4166,3833L4166,3834L4165,3834L4165,3835L4164,3835L4164,3836L4162,3838L4162,3839L4161,3839L4161,3840L4160,3840L4160,3841L4157,3844L4157,3845L4156,3845L4156,3846L4155,3846L4155,3847L4154,3848L4154,3849L4153,3849L4153,3850L4152,3850L4152,3851L4151,3851L4151,3852L4150,3853L4150,3854L4149,3854L4149,3855L4148,3855L4148,3856L4146,3858L4146,3859L4145,3859L4145,3860L4144,3860L4144,3861L4143,3862L4143,3863L4142,3863L4142,3864L4141,3864L4141,3865L4139,3867L4139,3868L4138,3868L4138,3869L4137,3869L4137,3870L4135,3872L4135,3873L4134,3873L4134,3874L4132,3876L4132,3877L4131,3877L4131,3878L4130,3878L4130,3880L4129,3880L4129,3881L4128,3881L4128,3882L4127,3882L4127,3883L4126,3884L4126,3885L4125,3885L4125,3886L4124,3886L4124,3887L4123,3888L4123,3889L4122,3889L4122,3890L4121,3890L4121,3892L4120,3892L4120,3893L4119,3893L4119,3894L4118,3894L4118,3895L4117,3896L4117,3897L4115,3899L4115,3900L4114,3900L4114,3901L4113,3901L4113,3902L4112,3903L4112,3904L4111,3904L4111,3905L4109,3907L4109,3908L4108,3908L4108,3909L4107,3910L4107,3911L4106,3911L4106,3912L4105,3912L4105,3913L4104,3914L4104,3915L4103,3915L4103,3916L4102,3917L4102,3918L4101,3918L4101,3919L4099,3921L4099,3922L4098,3922L4098,3923L4097,3924L4097,3925L4096,3925L4096,3926L4094,3928L4094,3929L4093,3929L4093,3931L4092,3931L4092,3932L4091,3932L4091,3933L4090,3934L4090,3935L4089,3935L4089,3936L4088,3937L4088,3938L4086,3940L4086,3941L4085,3941L4085,3942L4084,3942L4084,3944L4083,3944L4083,3945L4082,3945L4082,3946L4081,3947L4081,3948L4080,3949L4080,3950L4079,3950L4079,3951L4078,3952L4078,3953L4077,3953L4077,3954L4076,3955L4076,3956L4075,3956L4075,3957L4074,3958L4074,3959L4073,3959L4073,3960L4072,3960L4072,3962L4071,3962L4071,3963L4070,3964L4070,3965L4069,3965L4069,3966L4068,3967L4068,3968L4067,3968L4067,3969L4066,3970L4066,3971L4065,3971L4065,3972L4064,3973L4064,3974L4063,3974L4063,3976L4062,3976L4062,3977L4061,3978L4061,3979L4060,3979L4060,3980L4059,3981L4059,3982L4058,3983L4058,3984L4057,3984L4057,3985L4056,3986L4056,3987L4055,3987L4055,3988L4054,3989L4054,3990L4053,3991L4053,3992L4052,3992L4052,3993L4051,3994L4051,3995L4050,3995L4050,3997L4049,3997L4049,3998L4048,3999L4048,4000L4047,4000L4047,4001L4046,4002L4046,4003L4045,4003L4045,4005L4044,4005L4044,4006L4043,4007L4043,4008L4042,4009L4042,4010L4041,4010L4041,4011L4040,4012L4040,4013L4039,4013L4039,4015L4038,4015L4038,4017L4037,4017L4037,4018L4036,4019L4036,4020L4035,4021L4035,4022L4034,4022L4034,4024L4033,4024L4033,4025L4032,4026L4032,4027L4031,4027L4031,4029L4030,4029L4030,4030L4029,4031L4029,4032L4028,4033L4028,4034L4027,4034L4027,4036L4026,4036L4026,4037L4025,4038L4025,4039L4024,4040L4024,4041L4023,4042L4023,4043L4022,4043L4022,4045L4021,4045L4021,4047L4020,4047L4020,4048L4019,4049L4019,4050L4018,4050L4018,4052L4017,4052L4017,4054L4016,4054L4016,4056L4015,4056L4015,4057L4014,4058L4014,4059L4013,4060L4013,4061L4012,4062L4012,4063L4011,4063L4011,4065L4010,4065L4010,4067L4009,4067L4009,4069L4008,4069L4008,4071L4007,4071L4007,4073L4006,4073L4006,4074L4005,4075L4005,4076L4004,4077L4004,4078L4003,4079L4003,4080L4002,4080L4002,4082L4001,4083L4001,4084L4000,4085L4000,4086L3999,4086L3999,4088L3998,4088L3998,4090L3997,4090L3997,4092L3996,4092L3996,4094L3995,4095L3995,4096L3994,4097L3994,4098L3993,4098L3993,4100L3992,4101L3992,4102L3991,4103L3991,4104L3990,4105L3990,4106L3989,4106L3989,4108L3988,4109L3988,4110L3987,4111L3987,4112L3986,4113L3986,4115L3985,4115L3985,4117L3984,4117L3984,4119L3983,4119L3983,4121L3982,4121L3982,4123L3981,4124L3981,4125L3980,4126L3980,4127L3979,4128L3979,4130L3978,4130L3978,4132L3977,4132L3977,4134L3976,4134L3976,4136L3975,4137L3975,4138L3974,4139L3974,4140L3973,4141L3973,4143L3972,4143L3972,4145L3971,4146L3971,4147L3970,4148L3970,4150L3969,4150L3969,4152L3968,4152L3968,4154L3967,4155L3967,4157L3966,4157L3966,4159L3965,4160L3965,4161L3964,4162L3964,4164L3963,4164L3963,4166L3962,4167L3962,4169L3961,4169L3961,4171L3960,4171L3960,4173L3959,4174L3959,4176L3958,4176L3958,4178L3957,4179L3957,4181L3956,4181L3956,4183L3955,4185L3955,4186L3954,4186L3954,4188L3953,4189L3953,4191L3952,4191L3952,4193L3951,4194L3951,4196L3950,4196L3950,4199L3949,4200L3949,4201L3948,4202L3948,4204L3947,4204L3947,4206L3946,4207L3946,4209L3945,4209L3945,4211L3944,4213L3944,4214L3943,4215L3943,4217L3942,4218L3942,4220L3941,4221L3941,4223L3940,4223L3940,4225L3939,4227L3939,4228L3938,4229L3938,4231L3937,4232L3937,4234L3936,4235L3936,4237L3935,4238L3935,4240L3934,4242L3934,4243L3933,4244L3933,4246L3932,4247L3932,4249L3931,4250L3931,4253L3930,4253L3930,4256L3929,4257L3929,4259L3928,4259L3928,4261L3927,4263L3927,4265L3926,4265L3926,4268L3925,4269L3925,4272L3924,4272L3924,4275L3923,4276L3923,4278L3922,4279L3922,4281L3921,4282L3921,4285L3920,4285L3920,4288L3919,4290L3919,4292L3918,4292L3918,4296L3917,4297L3917,4300L3916,4300L3916,4303L3915,4304L3915,4307L3914,4307L3914,4311L3913,4311L3913,4315L3912,4315L3912,4319L3911,4319L3911,4322L3910,4324L3910,4327L3909,4327L3909,4331L3908,4331L3908,4335L3907,4336L3907,4340L3906,4340L3906,4344L3905,4345L3905,4349L3904,4350L3904,4353L3903,4354L3903,4358L3902,4358L3902,4362L3901,4363L3901,4368L3900,4368L3900,4373L3899,4374L3899,4378L3898,4379L3898,4384L3897,4384L3897,4389L3896,4390L3896,4395L3895,4396L3895,4402L3894,4403L3894,4408L3893,4409L3893,4415L3892,4415L3892,4416" style="fill:none;fill-rule:nonzero;stroke:white;stroke-width:72.5px;"/>
                </g>
                <g transform="matrix(0.0275877,0,0,0.0275877,878.167,111.328)">
                    <path d="M4428,4416L4416,4408L4404,4401L4393,4393L4381,4383L4375,4379L4368,4374L4355,4364L4343,4354L4340,4352L4335,4347L4332,4345L4330,4343L4327,4341L4297,4311L4294,4307L4291,4304L4289,4301L4286,4298L4284,4295L4279,4288L4275,4281L4271,4275L4267,4268L4264,4261L4262,4254L4259,4236L4260,4231L4260,4225L4261,4222L4261,4220L4263,4214L4264,4212L4265,4209L4267,4206L4268,4204L4271,4199L4275,4193L4279,4188L4288,4179" style="fill:none;fill-rule:nonzero;stroke:white;stroke-width:72.5px;"/>
                </g>
                <g transform="matrix(0.0275877,0,0,0.0275877,878.167,144.875)">
                    <path d="M3909,3700L3907,3699L3906,3698L3904,3697L3903,3696L3902,3696L3899,3693L3899,3692L3898,3691L3897,3691L3896,3690L3896,3689L3893,3686L3893,3683L3892,3682L3892,3679" style="fill:none;fill-rule:nonzero;stroke:white;stroke-width:72.5px;"/>
                </g>
                <g transform="matrix(0.0275877,0,0,0.0275877,878.167,109.121)">
                    <path d="M5875,4232L5877,4235L5882,4240L5886,4246L5889,4252L5892,4257L5896,4269L5896,4275L5897,4280L5897,4286L5896,4291L5895,4294L5895,4297L5890,4312L5888,4315L5885,4322L5877,4334L5872,4341L5868,4346L5863,4352L5862,4353L5861,4355L5859,4357L5858,4359L5856,4360L5855,4361L5847,4370L5838,4379L5818,4397L5796,4415L5784,4424L5771,4433L5758,4443" style="fill:none;fill-rule:nonzero;stroke:white;stroke-width:72.5px;"/>
                </g>
                <g transform="matrix(0.0275877,0,0,0.0275877,878.167,123.798)">
                    <path d="M6264,4443L6264,4441L6263,4441L6263,4435L6262,4433L6262,4428L6261,4427L6261,4422L6260,4422L6260,4416L6259,4415L6259,4410L6258,4410L6258,4405L6257,4404L6257,4400L6256,4399L6256,4394L6255,4394L6255,4390L6254,4389L6254,4384L6253,4383L6253,4380L6252,4379L6252,4375L6251,4375L6251,4371L6250,4369L6250,4366L6249,4366L6249,4361L6248,4361L6248,4357L6247,4356L6247,4353L6246,4353L6246,4349L6245,4348L6245,4345L6244,4344L6244,4341L6243,4340L6243,4337L6242,4337L6242,4333L6241,4333L6241,4329L6240,4329L6240,4326L6239,4325L6239,4322L6238,4321L6238,4318L6237,4318L6237,4314L6236,4314L6236,4311L6235,4310L6235,4307L6234,4307L6234,4304L6233,4304L6233,4301L6232,4300L6232,4297L6231,4297L6231,4294L6230,4293L6230,4290L6229,4290L6229,4288L6228,4287L6228,4284L6227,4284L6227,4281L6226,4280L6226,4278L6225,4277L6225,4275L6224,4274L6224,4271L6223,4271L6223,4268L6222,4268L6222,4265L6221,4265L6221,4262L6220,4262L6220,4259L6219,4259L6219,4256L6218,4256L6218,4254L6217,4253L6217,4251L6216,4250L6216,4248L6215,4247L6215,4245L6214,4244L6214,4242L6213,4242L6213,4239L6212,4239L6212,4236L6211,4236L6211,4234L6210,4233L6210,4231L6209,4230L6209,4228L6208,4228L6208,4225L6207,4225L6207,4223L6206,4222L6206,4221L6205,4220L6205,4217L6204,4217L6204,4215L6203,4214L6203,4212L6202,4211L6202,4209L6201,4209L6201,4207L6200,4207L6200,4205L6199,4204L6199,4203L6198,4201L6198,4199L6197,4199L6197,4197L6196,4197L6196,4194L6195,4194L6195,4192L6194,4192L6194,4189L6193,4189L6193,4188L6192,4186L6192,4185L6191,4184L6191,4182L6190,4182L6190,4180L6189,4179L6189,4178L6188,4177L6188,4175L6187,4174L6187,4172L6186,4172L6186,4171L6185,4169L6185,4168L6184,4167L6184,4166L6183,4165L6183,4163L6182,4163L6182,4161L6181,4160L6181,4159L6180,4158L6180,4156L6179,4156L6179,4154L6178,4154L6178,4152L6177,4152L6177,4150L6176,4149L6176,4147L6175,4147L6175,4145L6174,4145L6174,4143L6173,4142L6172,4140L6172,4139L6171,4138L6171,4136L6170,4136L6170,4134L6169,4133L6169,4132L6168,4132L6168,4130L6167,4129L6167,4128L6166,4127L6166,4125L6165,4125L6165,4123L6164,4123L6164,4122L6163,4121L6163,4119L6162,4119L6162,4117L6161,4117L6161,4115L6160,4115L6160,4113L6159,4113L6159,4111L6158,4111L6158,4109L6157,4108L6157,4107L6156,4106L6156,4105L6155,4105L6155,4103L6154,4102L6154,4101L6153,4100L6153,4099L6152,4098L6152,4097L6151,4096L6151,4095L6150,4094L6150,4093L6149,4092L6149,4091L6148,4090L6148,4089L6147,4088L6147,4087L6146,4086L6146,4085L6145,4084L6145,4083L6144,4082L6144,4081L6143,4081L6143,4079L6142,4078L6142,4077L6141,4077L6141,4075L6140,4075L6140,4073L6139,4073L6139,4071L6138,4071L6138,4069L6137,4069L6137,4067L6136,4067L6136,4065L6135,4065L6135,4064L6134,4063L6134,4062L6133,4061L6133,4060L6132,4060L6132,4058L6131,4057L6131,4056L6129,4054L6129,4053L6128,4052L6128,4051L6127,4050L6127,4049L6126,4048L6126,4047L6125,4047L6125,4045L6124,4045L6124,4043L6123,4043L6123,4041L6122,4041L6122,4039L6121,4039L6121,4038L6120,4037L6120,4036L6119,4035L6119,4034L6118,4033L6118,4032L6116,4030L6116,4029L6115,4028L6115,4027L6114,4027L6114,4026L6113,4025L6113,4024L6112,4023L6112,4022L6111,4022L6111,4020L6110,4020L6110,4019L6109,4018L6109,4017L6108,4016L6108,4015L6107,4015L6107,4013L6106,4013L6106,4012L6105,4011L6105,4010L6104,4009L6104,4008L6103,4008L6103,4006L6102,4006L6102,4005L6101,4004L6101,4003L6100,4002L6100,4001L6099,4001L6099,4000L6098,3999L6098,3998L6097,3998L6097,3996L6096,3996L6096,3994L6095,3994L6095,3993L6094,3993L6094,3991L6093,3991L6093,3990L6092,3989L6092,3988L6091,3988L6091,3986L6090,3986L6090,3985L6089,3984L6089,3983L6088,3982L6088,3981L6087,3981L6087,3980L6086,3980L6086,3978L6085,3978L6085,3977L6084,3976L6084,3975L6082,3973L6082,3972L6081,3971L6081,3970L6079,3968L6079,3967L6078,3966L6078,3965L6077,3965L6077,3964L6076,3963L6076,3962L6075,3962L6075,3961L6074,3960L6074,3959L6073,3958L6073,3957L6072,3957L6072,3956L6071,3956L6071,3954L6070,3954L6070,3953L6069,3952L6069,3951L6068,3951L6068,3950L6067,3949L6067,3948L6066,3948L6066,3947L6065,3946L6065,3945L6063,3943L6063,3942L6062,3941L6062,3940L6060,3938L6060,3937L6059,3937L6059,3936L6058,3935L6058,3934L6057,3934L6057,3933L6056,3932L6056,3931L6055,3931L6055,3930L6054,3930L6054,3928L6053,3928L6053,3927L6052,3926L6052,3925L6051,3925L6051,3924L6050,3923L6050,3922L6049,3922L6049,3921L6048,3920L6048,3919L6047,3919L6047,3918L6046,3918L6046,3916L6045,3916L6045,3915L6044,3915L6044,3913L6043,3913L6043,3912L6042,3912L6042,3911L6041,3910L6041,3909L6040,3909L6040,3907L6039,3907L6039,3906L6038,3906L6038,3905L6037,3904L6037,3903L6036,3903L6036,3902L6035,3901L6035,3900L6034,3900L6033,3899L6033,3898L6031,3896L6031,3895L6030,3894L6029,3892L6028,3891L6028,3890L6025,3887L6025,3886L6023,3884L6023,3883L6022,3883L6022,3882L6021,3881L6021,3880L6020,3880L6020,3879L6018,3877L6018,3876L6017,3876L6017,3875L6016,3874L6016,3873L6015,3873L6015,3872L6014,3872L6014,3871L6013,3870L6013,3869L6012,3869L6012,3868L6011,3868L6011,3867L6010,3866L6010,3865L6009,3865L6009,3864L6008,3863L6008,3862L6007,3862L6007,3861L6006,3861L6006,3860L6005,3859L6005,3858L6004,3858L6004,3857L6003,3857L6003,3855L6002,3855L6002,3854L6001,3854L6001,3853L6000,3853L6000,3852L5999,3851L5999,3850L5998,3850L5998,3849L5997,3849L5997,3848L5996,3847L5996,3846L5995,3846L5995,3845L5994,3845L5994,3843L5993,3843L5993,3842L5992,3842L5992,3841L5991,3841L5991,3840L5990,3839L5990,3838L5989,3838L5989,3837L5988,3837L5988,3835L5987,3835L5987,3834L5986,3834L5986,3833L5983,3830L5983,3829L5980,3826L5980,3825L5979,3825L5979,3824L5978,3824L5978,3823L5977,3822L5977,3821L5976,3821L5976,3820L5975,3820L5975,3818L5974,3818L5974,3817L5973,3817L5973,3816L5971,3814L5971,3813L5970,3813L5970,3812L5969,3811L5968,3811L5968,3810L5966,3808L5966,3807L5965,3807L5965,3806L5963,3804L5963,3803L5962,3803L5962,3802L5961,3802L5961,3801L5959,3799L5959,3798L5958,3798L5958,3797L5957,3796L5956,3796L5956,3795L5953,3792L5953,3791L5949,3787L5948,3785L5946,3783L5946,3782L5945,3782L5945,3781L5942,3778L5942,3777L5941,3777L5941,3776L5938,3773L5938,3772L5937,3772L5937,3771L5936,3771L5936,3770L5935,3770L5935,3769L5934,3768L5934,3767L5933,3767L5932,3766L5932,3765L5931,3765L5931,3764L5928,3761L5928,3760L5927,3760L5927,3759L5926,3759L5926,3758L5925,3758L5925,3757L5922,3754L5922,3753L5921,3753L5921,3752L5920,3752L5920,3751L5919,3750L5919,3749L5918,3749L5917,3748L5917,3747L5912,3742L5912,3741L5911,3741L5911,3740L5910,3740L5910,3739L5907,3736L5907,3735L5906,3735L5906,3734L5905,3734L5905,3733L5904,3733L5904,3732L5903,3732L5903,3731L5902,3731L5902,3730L5901,3730L5901,3729L5899,3727L5899,3726L5898,3726L5897,3725L5897,3724L5896,3724L5896,3723L5895,3723L5895,3722L5894,3722L5894,3721L5893,3721L5893,3720L5892,3720L5892,3719L5890,3717L5890,3716L5889,3716L5889,3715L5888,3715L5888,3714L5887,3714L5884,3711L5884,3710L5878,3704L5878,3703L5877,3703L5876,3702L5876,3701L5875,3701L5875,3700L5874,3700" style="fill:none;fill-rule:nonzero;stroke:white;stroke-width:72.5px;"/>
                </g>
                <g transform="matrix(0.0275877,0,0,0.0275877,878.167,102.721)">
                    <path d="M4402,4416L4401,4416L4399,4417L4398,4418L4397,4418L4396,4419L4394,4420L4393,4421L4392,4421L4390,4422L4389,4423L4388,4423L4384,4425L4383,4426L4379,4428L4378,4429L4375,4431L4372,4432L4366,4436L4363,4437L4360,4439L4358,4441L4357,4441L4356,4442L4355,4442L4353,4444L4352,4444L4351,4445L4350,4445L4350,4446L4348,4446L4347,4447L4347,4448L4346,4448L4345,4449L4344,4449L4342,4451L4341,4451L4340,4452L4338,4453L4337,4454L4336,4454L4335,4455L4334,4455L4332,4457L4331,4457L4331,4458L4330,4458L4329,4459L4328,4459L4328,4460L4327,4460L4327,4461L4326,4461L4325,4462L4324,4462L4324,4463L4323,4463L4322,4464L4318,4466L4318,4467L4317,4467L4315,4469L4314,4469L4314,4470L4313,4470L4312,4471L4311,4471L4311,4472L4310,4472L4310,4473L4309,4473L4306,4476L4305,4476L4303,4478L4302,4478L4302,4479L4301,4479L4301,4480L4300,4480L4300,4481L4299,4481L4294,4486L4293,4486L4288,4491" style="fill:none;fill-rule:nonzero;stroke:white;stroke-width:72.5px;"/>
                </g>
                <g transform="matrix(0.0275877,0,0,0.0275877,878.167,97.8102)">
                    <path d="M5724,4542L5720,4540L5716,4540L5713,4541L5707,4545" style="fill:none;fill-rule:nonzero;stroke:white;stroke-width:72.5px;"/>
                </g>
                <g transform="matrix(0.0275877,0,0,0.0275877,878.167,100.541)">
                    <path d="M5874,4543L5874,4542L5873,4541L5872,4541L5872,4540L5871,4539L5870,4539L5870,4538L5869,4538L5869,4537L5868,4537L5868,4536L5867,4536L5867,4535L5866,4535L5866,4534L5865,4534L5865,4533L5864,4533L5857,4526L5856,4526L5856,4525L5855,4525L5855,4524L5854,4524L5852,4522L5851,4522L5847,4518L5846,4518L5844,4516L5843,4516L5843,4515L5842,4515L5842,4514L5841,4514L5838,4511L5835,4509L5834,4509L5834,4508L5833,4508L5832,4507L5831,4507L5831,4506L5830,4506L5829,4505L5828,4505L5828,4504L5827,4504L5826,4503L5825,4503L5825,4502L5823,4501L5822,4500L5821,4500L5820,4499L5818,4498L5816,4496L5814,4495L5813,4494L5812,4494L5810,4493L5807,4490L5805,4490L5805,4489L5804,4489L5804,4488L5802,4488L5802,4487L5801,4487L5800,4486L5799,4486L5799,4485L5797,4485L5797,4484L5796,4484L5795,4483L5794,4483L5793,4482L5791,4481L5790,4480L5788,4479L5787,4478L5785,4477L5784,4476L5782,4475L5779,4474L5777,4473L5775,4471L5773,4470L5772,4469L5771,4469L5769,4468L5768,4467L5767,4467L5766,4466L5764,4465L5763,4464L5761,4463L5760,4463L5759,4462L5757,4461L5756,4460L5754,4460L5752,4458L5744,4454L5743,4453L5742,4453L5742,4452L5740,4452L5739,4451L5738,4451L5738,4450L5737,4450L5735,4448L5734,4448L5732,4447L5731,4447L5729,4445L5728,4445L5727,4444L5725,4443L5724,4443" style="fill:none;fill-rule:nonzero;stroke:white;stroke-width:72.5px;"/>
                </g>
            </g>
        </g>
    </g>
</svg>
