<?xml version="1.0" encoding="UTF-8" standalone="no"?><!DOCTYPE svg PUBLIC "-//W3C//DTD SVG 1.1//EN" "http://www.w3.org/Graphics/SVG/1.1/DTD/svg11.dtd"><svg width="100%" height="100%" viewBox="0 0 68 68" version="1.1" xmlns="http://www.w3.org/2000/svg" xmlns:xlink="http://www.w3.org/1999/xlink" xml:space="preserve" xmlns:serif="http://www.serif.com/" style="fill-rule:evenodd;clip-rule:evenodd;stroke-linecap:round;stroke-miterlimit:1;"><rect id="ico-rt" x="0" y="0" width="68" height="68" style="fill:none;"/><g><g><path d="M34,9.09c13.78,-0 24.968,11.188 24.968,24.968c-0,13.78 -11.188,24.968 -24.968,24.968c-13.78,-0 -24.968,-11.188 -24.968,-24.968c0,-13.78 11.188,-24.968 24.968,-24.968Zm-0,2c-12.676,-0 -22.968,10.291 -22.968,22.968c0,12.676 10.292,22.968 22.968,22.968c12.676,-0 22.968,-10.292 22.968,-22.968c-0,-12.677 -10.292,-22.968 -22.968,-22.968Z" style="fill:#5c5c5c;"/><path d="M34,11.526l-0,4.871" style="fill:none;stroke:#5c5c5c;stroke-width:2px;"/></g><path d="M34,3c17.141,-0 31.058,13.916 31.058,31.058" style="fill:none;stroke:#fff;stroke-width:2px;"/><path d="M2.942,34.058c0,-17.142 13.917,-31.058 31.058,-31.058" style="fill:none;stroke:#fff;stroke-width:2px;"/><circle cx="34" cy="3" r="3" style="fill:#fff;"/><g><path d="M34,65.724c-17.141,0 -31.058,-13.916 -31.058,-31.057" style="fill:none;stroke:#fff;stroke-width:2px;stroke-dasharray:0.8,4,0,0,0,0;"/><path d="M65.058,34.667c-0,17.141 -13.917,31.057 -31.058,31.057" style="fill:none;stroke:#fff;stroke-width:2px;stroke-dasharray:0.8,4,0,0,0,0;"/></g></g></svg>