<?xml version="1.0" encoding="UTF-8" standalone="no"?>
<!DOCTYPE svg PUBLIC "-//W3C//DTD SVG 1.1//EN" "http://www.w3.org/Graphics/SVG/1.1/DTD/svg11.dtd">
<svg width="100%" height="100%" viewBox="0 0 136 68" version="1.1" xmlns="http://www.w3.org/2000/svg" xmlns:xlink="http://www.w3.org/1999/xlink" xml:space="preserve" xmlns:serif="http://www.serif.com/" style="fill-rule:evenodd;clip-rule:evenodd;stroke-linejoin:round;stroke-miterlimit:2;">
    <g transform="matrix(1,0,0,1,-534.698,-1)">
        <g id="ico-usb" transform="matrix(2.10919,0,0,1.0625,534.698,1)">
            <rect x="0" y="0" width="64.48" height="64" style="fill:none;"/>
            <g transform="matrix(0.0491017,0,0,0.0974729,14.909,6.75176)">
                <path d="M641.5,256C641.5,259.1 639.8,262.1 637,263.5L547.9,317C546.5,317.8 545.1,318.4 543.4,318.4C542,318.4 540.3,318.1 538.9,317.3C536.1,315.6 534.4,312.8 534.4,309.5L534.4,273.9L295.7,273.9C321,313.5 336.2,380.8 365.3,380.8L392,380.8L392,354C392,349 395.9,345.1 400.9,345.1L490,345.1C495,345.1 498.9,349 498.9,354L498.9,443.1C498.9,448.1 495,452 490,452L400.9,452C395.9,452 392,448.1 392,443.1L392,416.4L365.3,416.4C289.9,416.4 284.2,273.9 240.6,273.9L140.3,273.9C132.2,304.5 104.4,327.4 71.3,327.4C32,327.3 0,295.3 0,256C0,216.7 32,184.7 71.3,184.7C104.4,184.7 132.3,207.5 140.3,238.2C179.4,238.2 184.2,247.7 214.9,177.8C255,88.7 273,95.7 323.8,95.7C331.3,74.8 350.8,60.1 374.2,60.1C403.7,60.1 427.7,84 427.7,113.6C427.7,143.2 403.8,167.1 374.2,167.1C350.8,167.1 331.3,152.3 323.8,131.5L294,131.5C264.9,131.5 249.7,198.9 224.4,238.4L534.5,238.4L534.5,202.8C534.5,199.5 536.2,196.7 539,195C541.8,193.3 545.4,193.6 547.9,195.3L637,248.8C639.8,249.9 641.5,252.9 641.5,256Z" style="fill:rgb(235,235,235);fill-rule:nonzero;"/>
            </g>
        </g>
    </g>
</svg>
