<?xml version="1.0" encoding="UTF-8" standalone="no"?><!DOCTYPE svg PUBLIC "-//W3C//DTD SVG 1.1//EN" "http://www.w3.org/Graphics/SVG/1.1/DTD/svg11.dtd"><svg width="100%" height="100%" viewBox="0 0 68 68" version="1.1" xmlns="http://www.w3.org/2000/svg" xmlns:xlink="http://www.w3.org/1999/xlink" xml:space="preserve" xmlns:serif="http://www.serif.com/" style="fill-rule:evenodd;clip-rule:evenodd;stroke-linecap:round;stroke-miterlimit:1;"><rect id="ico-vf" x="0" y="0" width="68" height="68" style="fill:none;"/><g><g><path d="M48.522,54.31c-11.209,8.015 -26.817,5.422 -34.832,-5.788c-8.015,-11.209 -5.422,-26.817 5.788,-34.832c11.209,-8.015 26.817,-5.422 34.832,5.788c8.015,11.209 5.422,26.817 -5.788,34.832Zm-1.163,-1.627c10.312,-7.373 12.697,-21.731 5.324,-32.042c-7.373,-10.312 -21.731,-12.697 -32.042,-5.324c-10.312,7.373 -12.697,21.731 -5.324,32.042c7.373,10.312 21.731,12.697 32.042,5.324Z" style="fill:#5c5c5c;"/><path d="M47.106,52.329l-2.834,-3.963" style="fill:none;stroke:#5c5c5c;stroke-width:2px;"/></g><path d="M37.221,0.181c-1.651,-0.127 -3.094,1.11 -3.221,2.761c-0.127,1.651 1.111,3.094 2.762,3.221c1.651,0.127 3.094,-1.111 3.22,-2.762c0.127,-1.651 -1.11,-3.094 -2.761,-3.22Z" style="fill:#fff;"/><path d="M27.788,0.41l6.212,2.532l-5.753,3.45l-0.459,-5.982Z" style="fill:#fff;"/><path d="M38.709,3.804c-0.272,-0.043 -0.459,-0.298 -0.417,-0.571c0.042,-0.273 0.298,-0.46 0.57,-0.418c7.605,1.179 14.315,5.075 19.106,10.665c4.731,5.519 7.59,12.688 7.59,20.52c-0,8.709 -3.535,16.598 -9.248,22.31c-5.712,5.713 -13.601,9.248 -22.31,9.248c-8.709,-0 -16.598,-3.535 -22.31,-9.248c-5.713,-5.712 -9.248,-13.601 -9.248,-22.31c0,-7.832 2.859,-15.001 7.59,-20.52c4.791,-5.59 11.501,-9.486 19.106,-10.665c0.272,-0.042 0.528,0.145 0.57,0.418c0.042,0.273 -0.145,0.528 -0.417,0.571c-7.363,1.14 -13.861,4.914 -18.5,10.327c-4.58,5.344 -7.349,12.286 -7.349,19.869c0,8.433 3.423,16.072 8.955,21.603c5.531,5.532 13.17,8.955 21.603,8.955c8.433,-0 16.072,-3.423 21.603,-8.955c5.532,-5.531 8.955,-13.17 8.955,-21.603c-0,-7.583 -2.769,-14.525 -7.349,-19.869c-4.639,-5.413 -11.137,-9.187 -18.5,-10.327Z" style="fill:#fff;"/></g></svg>