<?xml version="1.0" encoding="UTF-8" standalone="no"?>
<!DOCTYPE svg PUBLIC "-//W3C//DTD SVG 1.1//EN" "http://www.w3.org/Graphics/SVG/1.1/DTD/svg11.dtd">
<svg width="100%" height="100%" viewBox="0 0 301 301" version="1.1" xmlns="http://www.w3.org/2000/svg" xmlns:xlink="http://www.w3.org/1999/xlink" xml:space="preserve" xmlns:serif="http://www.serif.com/" style="fill-rule:evenodd;clip-rule:evenodd;stroke-linecap:round;stroke-linejoin:round;stroke-miterlimit:10;">
    <g transform="matrix(1,0,0,1,-406.435,-188.7)">
        <g transform="matrix(1,0,0,1,272.791,-68.96)">
            <g transform="matrix(1.76453,0,0,1.76453,-791.267,-245.177)">
                <g transform="matrix(0.12,0,0,0.12,0,-54.8614)">
                    <path d="M4811.28,4001.73C5065.82,4147.93 5390.68,4060.11 5536.88,3805.57C5621.18,3658.82 5630.54,3480.7 5562.1,3325.91" style="fill:none;fill-rule:nonzero;stroke:white;stroke-width:2.83px;"/>
                </g>
                <g transform="matrix(-0.0800815,-0.0893697,-0.0893697,0.0800815,1472.57,474.872)">
                    <path d="M5288.11,4270.32C5394.91,4235.59 5509.97,4235.59 5616.77,4270.32" style="fill:none;fill-rule:nonzero;stroke:white;stroke-width:2.83px;"/>
                </g>
                <g transform="matrix(0,-0.12,-0.12,0,1081.2,979.52)">
                    <path d="M5078,3228.5C4689.47,3228.5 4374.5,3543.47 4374.5,3932C4374.5,4320.53 4689.47,4635.5 5078,4635.5C5466.53,4635.5 5781.5,4320.53 5781.5,3932C5781.5,3543.47 5466.53,3228.5 5078,3228.5" style="fill:none;fill-rule:nonzero;stroke:rgb(92,92,92);stroke-width:2.83px;"/>
                </g>
                <g transform="matrix(0.12,0,0,0.12,0,-119.458)">
                    <path d="M5342.77,3619.45C5088.89,3472.12 4763.64,3558.49 4616.3,3812.38C4468.97,4066.26 4555.34,4391.52 4809.23,4538.85C4809.91,4539.25 4810.59,4539.64 4811.28,4540.03" style="fill:none;fill-rule:nonzero;stroke:white;stroke-width:2.83px;"/>
                </g>
                <g transform="matrix(0.12,0,0,0.12,0,-84.1415)">
                    <path d="M4811.23,4245.55C5065.12,4392.88 5390.37,4306.5 5537.7,4052.62C5685.03,3798.73 5598.66,3473.48 5344.77,3326.14C5344.09,3325.75 5343.41,3325.36 5342.73,3324.97" style="fill:none;fill-rule:nonzero;stroke:white;stroke-width:2.83px;"/>
                </g>
                <g transform="matrix(0,-0.12,-0.12,0,1081.08,979.16)">
                    <path d="M5076,3420.5C4792.95,3420.5 4563.5,3649.95 4563.5,3933C4563.5,4216.05 4792.95,4445.5 5076,4445.5C5359.05,4445.5 5588.5,4216.05 5588.5,3933C5588.5,3649.95 5359.05,3420.5 5076,3420.5" style="fill-rule:nonzero;stroke:black;stroke-width:2.83px;"/>
                </g>
                <g transform="matrix(0,-0.12,-0.12,0,1081.2,979.52)">
                    <path d="M5078,3332C4746.63,3332 4478,3600.63 4478,3932C4478,4263.37 4746.63,4532 5078,4532C5409.37,4532 5678,4263.37 5678,3932C5678,3600.63 5409.37,3332 5078,3332" style="fill:none;fill-rule:nonzero;stroke:rgb(92,92,92);stroke-width:2.83px;"/>
                </g>
                <g transform="matrix(0,-0.12,-0.12,0,1081.2,979.52)">
                    <path d="M5078,3374.5C4770.1,3374.5 4520.5,3624.1 4520.5,3932C4520.5,4239.9 4770.1,4489.5 5078,4489.5C5385.9,4489.5 5635.5,4239.9 5635.5,3932C5635.5,3624.1 5385.9,3374.5 5078,3374.5" style="fill:none;fill-rule:nonzero;stroke:rgb(92,92,92);stroke-width:2.83px;"/>
                </g>
                <g transform="matrix(0,-0.12,-0.12,0,1081.2,979.52)">
                    <path d="M5078,3318C4738.9,3318 4464,3592.9 4464,3932C4464,4271.1 4738.9,4546 5078,4546C5417.1,4546 5692,4271.1 5692,3932C5692,3592.9 5417.1,3318 5078,3318" style="fill:none;fill-rule:nonzero;stroke:rgb(92,92,92);stroke-width:2.83px;"/>
                </g>
                <g transform="matrix(0,-0.12,-0.12,0,1081.2,979.52)">
                    <path d="M5078,3223.5C4686.71,3223.5 4369.5,3540.71 4369.5,3932C4369.5,4323.29 4686.71,4640.5 5078,4640.5C5469.29,4640.5 5786.5,4323.29 5786.5,3932C5786.5,3540.71 5469.29,3223.5 5078,3223.5" style="fill:none;fill-rule:nonzero;stroke:rgb(92,92,92);stroke-width:2.83px;"/>
                </g>
            </g>
        </g>
    </g>
</svg>
